<svg xmlns="http://www.w3.org/2000/svg" width="79" height="32" viewBox="0 0 79 32">
  <g id="Logo_text" data-name="Logo text" transform="translate(0.308)">
    <rect id="Wrap" width="79" height="32" transform="translate(-0.308)" fill="#fff" opacity="0"/>
    <g id="Vector" transform="translate(5.026 4.686)">
      <path id="Path_10823" data-name="Path 10823" d="M2130.335,1880.931a7.342,7.342,0,0,0-6.961-.349,7.554,7.554,0,0,0-1.693,1.143V1875.4a1.848,1.848,0,0,0-3.115-1.318,1.76,1.76,0,0,0-.527,1.318v12.467a8.338,8.338,0,0,0,1.067,4.087,7.751,7.751,0,0,0,2.832,2.875,7.969,7.969,0,0,0,10.957-2.873,8.053,8.053,0,0,0,1.055-4.095,8.522,8.522,0,0,0-.966-4.068A7.552,7.552,0,0,0,2130.335,1880.931Zm-2.091,11.038a4.34,4.34,0,0,1-6.095-1.682,5.076,5.076,0,0,1-.578-2.422,4.98,4.98,0,0,1,.575-2.418,4.364,4.364,0,0,1,1.582-1.657,4.5,4.5,0,0,1,4.515,0,4.493,4.493,0,0,1,1.586,1.662,4.881,4.881,0,0,1,.588,2.414,4.989,4.989,0,0,1-.589,2.419A4.438,4.438,0,0,1,2128.244,1891.968Z" transform="translate(-2118.039 -1873.582)" fill="#d4145a"/>
      <path id="Path_10824" data-name="Path 10824" d="M2174.531,1889.359a7.989,7.989,0,0,0-10.957,2.873,8.053,8.053,0,0,0-1.055,4.094,8.506,8.506,0,0,0,.966,4.068,7.543,7.543,0,0,0,2.649,2.865,7.352,7.352,0,0,0,7.615,0,7.152,7.152,0,0,0,1.041-.8,1.82,1.82,0,1,0,3.641-.04v-6.094a8.062,8.062,0,0,0-1.055-4.1A7.876,7.876,0,0,0,2174.531,1889.359Zm-4.042,11.651a4.289,4.289,0,0,1-2.252-.608,4.425,4.425,0,0,1-1.6-1.673,4.9,4.9,0,0,1-.589-2.4,4.971,4.971,0,0,1,.589-2.431,4.438,4.438,0,0,1,1.6-1.672,4.5,4.5,0,0,1,4.516,0,4.365,4.365,0,0,1,1.569,1.67,5.056,5.056,0,0,1,.578,2.434,5,5,0,0,1-.577,2.406,4.368,4.368,0,0,1-1.57,1.671A4.267,4.267,0,0,1,2170.488,1901.01Z" transform="translate(-2143.526 -1882.017)" fill="#d4145a"/>
      <path id="Path_10825" data-name="Path 10825" d="M2217.188,1895.649a12.654,12.654,0,0,0-3.353-1.079,12.891,12.891,0,0,1-2.165-.591,1.767,1.767,0,0,1-.83-.549,1.159,1.159,0,0,1-.19-.655c0-.245.068-.56.6-.82a4.189,4.189,0,0,1,1.848-.366,5.806,5.806,0,0,1,1.7.227,3.328,3.328,0,0,1,1.311.806,2.385,2.385,0,0,0,1.226.6,2.12,2.12,0,0,0,.386.036,1.691,1.691,0,0,0,.986-.306,1.492,1.492,0,0,0,.635-1.123,1.665,1.665,0,0,0-.45-1.208,5.894,5.894,0,0,0-2.383-1.711,8.8,8.8,0,0,0-3.36-.606,8.474,8.474,0,0,0-2.819.475,5.413,5.413,0,0,0-2.282,1.485,3.761,3.761,0,0,0-.929,2.594,3.856,3.856,0,0,0,1.389,3,8.95,8.95,0,0,0,4.21,1.739,7.143,7.143,0,0,1,2.758.906,1.262,1.262,0,0,1,.607,1.064,1.185,1.185,0,0,1-.66.991,4.241,4.241,0,0,1-2.192.455,5.226,5.226,0,0,1-2.11-.415,3.947,3.947,0,0,1-1.349-.871,1.909,1.909,0,0,0-1.174-.61,1.641,1.641,0,0,0-.2-.012,1.912,1.912,0,0,0-1.2.466,1.724,1.724,0,0,0-.7,1.2,1.63,1.63,0,0,0,.463,1.352,7.221,7.221,0,0,0,2.684,1.589,10.807,10.807,0,0,0,3.684.613,8.141,8.141,0,0,0,3.418-.641,5.031,5.031,0,0,0,2.145-1.764,4.452,4.452,0,0,0,.74-2.5,4.011,4.011,0,0,0-.584-2.153A4.75,4.75,0,0,0,2217.188,1895.649Z" transform="translate(-2168.725 -1882.017)" fill="#d4145a"/>
      <path id="Path_10826" data-name="Path 10826" d="M2258.781,1883.231a6.267,6.267,0,0,0-2.521-2.533,7.432,7.432,0,0,0-3.578-.858,7.111,7.111,0,0,0-3.457.846,6.643,6.643,0,0,0-.762.487V1875.4a1.848,1.848,0,0,0-3.115-1.318,1.759,1.759,0,0,0-.527,1.318v18.583a1.847,1.847,0,0,0,3.139,1.294,1.8,1.8,0,0,0,.5-1.294v-7.706a2.6,2.6,0,0,1,.469-1.545,3.475,3.475,0,0,1,1.317-1.106,4.171,4.171,0,0,1,1.885-.42,4.577,4.577,0,0,1,2.038.434,3.171,3.171,0,0,1,1.364,1.294,4.6,4.6,0,0,1,.516,2.326v6.722a1.821,1.821,0,1,0,3.641,0v-6.722A8.269,8.269,0,0,0,2258.781,1883.231Z" transform="translate(-2190.685 -1873.582)" fill="#d4145a"/>
    </g>
  </g>
</svg>
