<svg id="Vector" xmlns="http://www.w3.org/2000/svg" width="72.348" height="72.784" viewBox="0 0 72.348 72.784">
  <path id="Path_16245" data-name="Path 16245" d="M84.11,61.147l6.07-6.677s2.432,7.891,8.5,3.946c0,0,4.553-6.07-2.736-9.4l6.374-6.07,5.468,5.459s4.553-5.463,9.4-1.821a6.506,6.506,0,0,1-2.732,9.4l5.468,5.164-5.767,6.374s-2.137-6.677-9.105-3.339c0,0-3.039,6.07,3.642,8.8l-6.682,6.374Z" transform="translate(-48.154 -24.584)" fill="#86e9ef"/>
  <path id="Path_16246" data-name="Path 16246" d="M83.36,60.339l.316.286,6.07-6.677-.316-.286L89,53.79a11,11,0,0,0,1.282,2.638,7.2,7.2,0,0,0,1.748,1.847,4.544,4.544,0,0,0,2.646.855,6.34,6.34,0,0,0,3.484-1.154l.064-.043.047-.06a8.338,8.338,0,0,0,.744-1.282,7.365,7.365,0,0,0,.744-3.078,5.211,5.211,0,0,0-.928-2.992,8.191,8.191,0,0,0-3.458-2.68l-.18.389.295.312,6.075-5.814,5.5,5.5.3-.359a9.992,9.992,0,0,1,1.71-1.53,6.84,6.84,0,0,1,3.847-1.385,5.364,5.364,0,0,1,3.266,1.167l.257-.342L116.08,46a7.264,7.264,0,0,1,.97,3.493,5.265,5.265,0,0,1-.71,2.676,7.444,7.444,0,0,1-2.843,2.638l-.5.286,5.583,5.271-5.489,6.062.321.286.427-.128a7.875,7.875,0,0,0-1.282-2.274,6.281,6.281,0,0,0-1.813-1.573,5.557,5.557,0,0,0-2.8-.722,8.9,8.9,0,0,0-3.813.975l-.133.064-.064.128a8.118,8.118,0,0,0-.731,3.309,5.921,5.921,0,0,0,.919,3.253,7.611,7.611,0,0,0,3.676,2.83l.162-.4-.295-.308-6.4,6.083L83.655,60.04l-.308.3.316.286-.316-.286-.3.3,18.224,18.514,7.46-7.122-.62-.248a6.758,6.758,0,0,1-3.279-2.5,5.127,5.127,0,0,1-.787-2.791,7.137,7.137,0,0,1,.329-2.086c.081-.265.162-.479.222-.624.03-.073.056-.128.073-.162v-.043l-.38-.192.184.385a8.008,8.008,0,0,1,3.441-.889,4.7,4.7,0,0,1,2.381.611,5.885,5.885,0,0,1,2.09,2.095,7.763,7.763,0,0,1,.466.9c.051.115.086.209.107.269l.026.068.227.705,6.545-7.233-5.745-5.429-.291.312.209.372a8.224,8.224,0,0,0,3.159-2.954,6.109,6.109,0,0,0,.825-3.1,8.1,8.1,0,0,0-1.1-3.95l-.043-.068-.06-.047a6.225,6.225,0,0,0-3.779-1.338,7.7,7.7,0,0,0-4.442,1.62,10.607,10.607,0,0,0-1.774,1.607l.329.274.3-.3-5.758-5.758-7.13,6.793.573.265a7.318,7.318,0,0,1,3.108,2.39,4.317,4.317,0,0,1,.778,2.518,6.5,6.5,0,0,1-.663,2.715,7.98,7.98,0,0,1-.457.855,1.907,1.907,0,0,1-.15.227l-.038.06.342.256-.235-.359a5.51,5.51,0,0,1-2.992,1.039,3.663,3.663,0,0,1-2.137-.714,7.194,7.194,0,0,1-2.065-2.514,10.654,10.654,0,0,1-.5-1.086c-.056-.141-.094-.252-.12-.325l-.03-.085v-.021l-.222-.718L82.8,60.356l.282.286Z" transform="translate(-47.404 -23.776)" fill="#141c2b"/>
  <path id="Path_16247" data-name="Path 16247" d="M60.184,85.18l-5.767,5.767s7.588,3.642,2.732,8.8c0,0-5.767,3.642-8.195-3.642l-6.374,6.677,5.16,5.463s-6.374,3.642-1.821,9.4c0,0,4.856,4.553,9.712-1.518l5.463,4.878,5.177-5.48s2.732,6.677,8.8,2.732c0,0,5.463-3.642-1.214-10.623l4.249-4.249Z" transform="translate(-24.378 -48.767)" fill="#fff"/>
  <path id="Path_16248" data-name="Path 16248" d="M59.394,84.333l-.3-.3L52.9,90.241l.547.261a10.841,10.841,0,0,1,2.18,1.449,6.963,6.963,0,0,1,1.351,1.56,3.719,3.719,0,0,1,.581,1.928A4.637,4.637,0,0,1,56.047,98.6l.312.295-.231-.363a6.236,6.236,0,0,1-2.958.855,3.912,3.912,0,0,1-2.441-.821,6.967,6.967,0,0,1-2.159-3.42l-.227-.671-7.143,7.46,5.438,5.763.312-.295-.214-.372a8.9,8.9,0,0,0-1.83,1.483,7.487,7.487,0,0,0-1.261,1.778,5.494,5.494,0,0,0-.586,2.437,7.025,7.025,0,0,0,1.731,4.348v.026h.021a6.884,6.884,0,0,0,1.282.881,6.7,6.7,0,0,0,3.219.855,6.088,6.088,0,0,0,2.839-.714,9.576,9.576,0,0,0,2.992-2.6l-.333-.265-.286.321L60.3,120.7l5.446-5.763-.312-.295-.4.162a8.689,8.689,0,0,0,1.329,2.1,6.563,6.563,0,0,0,1.71,1.462,4.99,4.99,0,0,0,2.514.68,7.151,7.151,0,0,0,3.847-1.317A5.149,5.149,0,0,0,75.6,116.6a5.5,5.5,0,0,0,1.137-3.351c0-1.808-.855-4.087-3.42-6.78l-.308.295.3.3,4.548-4.553L59.347,83.7l-.3.3.3.3-.3.3,17.608,17.907-4.245,4.245.291.3c2.484,2.6,3.2,4.66,3.2,6.19a4.63,4.63,0,0,1-.962,2.834,5.285,5.285,0,0,1-.667.722l-.214.175-.056.043.094.137L74,117.027l.094.137L74,117.027l.239.355L74,117.023a6.256,6.256,0,0,1-3.42,1.18,4.154,4.154,0,0,1-2.086-.564,6.376,6.376,0,0,1-2.022-1.971,7.17,7.17,0,0,1-.5-.855c-.056-.107-.1-.192-.124-.252l-.03-.064-.248-.616-5.292,5.673-5.485-4.882-.282.351a8.689,8.689,0,0,1-2.74,2.377,5.179,5.179,0,0,1-2.449.628,5.815,5.815,0,0,1-2.809-.765,6.351,6.351,0,0,1-.817-.517c-.094-.073-.167-.128-.214-.171l-.051-.043-.077.081.077-.081-.077.081.077-.081-.291.312.333-.265a6.2,6.2,0,0,1-1.548-3.817,4.6,4.6,0,0,1,.5-2.056,7.111,7.111,0,0,1,1.71-2.137,8.828,8.828,0,0,1,.74-.569c.09-.064.167-.111.218-.141l.056-.034.475-.269L42.4,101.937l6.092-6.382-.308-.295-.427.133A7.78,7.78,0,0,0,50.2,99.239a4.748,4.748,0,0,0,2.962,1,7.068,7.068,0,0,0,3.42-.979l.047-.026.038-.043a5.436,5.436,0,0,0,1.74-3.745,4.565,4.565,0,0,0-.748-2.437,8.858,8.858,0,0,0-2.411-2.428,10.374,10.374,0,0,0-1.441-.855l-.184.385.3.3,5.767-5.78-.3-.3-.3.3Z" transform="translate(-23.588 -47.919)" fill="#141c2b"/>
  <path id="Path_16249" data-name="Path 16249" d="M61.6,1.39,56.141,6.554S53.105.479,47.035,4.729c0,0-5.16,4.249,1.214,10.02L44,19l5.463,5.16s4.856-6.07,9.712-1.214c0,0,3.339,6.07-2.428,9.712L61,37.209l6.374-6.677s2.137,8.195,8.5,3.946c0,0,4.249-5.463-2.732-9.4L79.511,19l-5.767-5.771s-1.821,7.267-8.8,3.035c0,0-4.249-5.16,3.035-8.5Z" transform="translate(-25.191 -0.796)" fill="#fff"/>
  <path id="Path_16250" data-name="Path 16250" d="M60.779.594,60.484.286l-5.463,5.16.295.312.38-.192a7.489,7.489,0,0,0-1.329-1.778A6.476,6.476,0,0,0,52.7,2.565,5.271,5.271,0,0,0,50.319,2a7.45,7.45,0,0,0-4.356,1.59,6.246,6.246,0,0,0-1.077,1.248,5.985,5.985,0,0,0-1.06,3.326,6.335,6.335,0,0,0,.727,2.864,11.409,11.409,0,0,0,2.6,3.245l.286-.316-.3-.3L42.56,18.211l6.122,5.78.291-.363a9.89,9.89,0,0,1,1.65-1.539,6.318,6.318,0,0,1,3.668-1.4,5.17,5.17,0,0,1,3.745,1.757l.3-.3-.376.205a8.6,8.6,0,0,1,.923,3.723,6.023,6.023,0,0,1-.646,2.77,6.865,6.865,0,0,1-2.565,2.65l-.427.278,4.912,5.258,6.694-7-.308-.295-.427.107a11.088,11.088,0,0,0,1.188,2.7,6.93,6.93,0,0,0,1.68,1.894,4.347,4.347,0,0,0,2.629.893,6.647,6.647,0,0,0,3.651-1.282l.06-.038.043-.056a6.755,6.755,0,0,0,.722-1.184,6.864,6.864,0,0,0,.684-2.877,5.621,5.621,0,0,0-.893-3.031A9.121,9.121,0,0,0,72.544,23.9l-.209.372.295.308L79.3,18.207,72.672,11.6l-.184.731a7.4,7.4,0,0,1-1.017,2.137,4.92,4.92,0,0,1-1.334,1.351,3.758,3.758,0,0,1-2.039.577,7.266,7.266,0,0,1-3.758-1.282l-.222.368.329-.274-.111.094.111-.094-.111.094.111-.094a5.392,5.392,0,0,1-.577-.932,4.95,4.95,0,0,1-.556-2.193,3.847,3.847,0,0,1,.808-2.343,8.082,8.082,0,0,1,3.232-2.381L67.91,7.1,60.788,0l-.3.286.295.308-.3.3,6.374,6.37.3-.3-.18-.385a9.1,9.1,0,0,0-3.561,2.65,4.7,4.7,0,0,0-.953,2.839,5.878,5.878,0,0,0,.658,2.6,5.947,5.947,0,0,0,.671,1.064l.043.056.064.038a8.139,8.139,0,0,0,4.2,1.394,4.635,4.635,0,0,0,2.565-.752A6.345,6.345,0,0,0,72.762,14a7.6,7.6,0,0,0,.577-1.471l-.427-.1-.3.3,5.459,5.459L71.6,24.367l.5.286a8.276,8.276,0,0,1,3.035,2.676,4.757,4.757,0,0,1,.761,2.565,5.983,5.983,0,0,1-.6,2.514,6.7,6.7,0,0,1-.427.752c-.06.085-.1.154-.137.2L74.7,33.4l.338.265-.227-.325a5.761,5.761,0,0,1-3.18,1.154,3.514,3.514,0,0,1-2.137-.727,6.878,6.878,0,0,1-1.949-2.565,10.746,10.746,0,0,1-.457-1.111c-.047-.141-.081-.256-.107-.333a.429.429,0,0,0-.026-.086v-.021l-.192-.744-6.583,6.878-3.941-4.224-.312.295.227.359A7.716,7.716,0,0,0,59,29.227a6.883,6.883,0,0,0,.74-3.151,9.494,9.494,0,0,0-1.013-4.138l-.03-.051-.043-.043A6.09,6.09,0,0,0,54.3,19.835a7.267,7.267,0,0,0-4.275,1.637,10.5,10.5,0,0,0-1.723,1.612l.333.269.291-.312L43.8,18.185l4.275-4.275-.333-.3a10.5,10.5,0,0,1-2.411-2.992,5.463,5.463,0,0,1-.637-2.479,5.13,5.13,0,0,1,.915-2.851,5.986,5.986,0,0,1,.633-.782,2.783,2.783,0,0,1,.205-.2l.021-.026-.077-.1.077.1-.077-.1.077.1-.256-.342.244.351A6.8,6.8,0,0,1,50.3,2.851a4.369,4.369,0,0,1,2,.479A6.028,6.028,0,0,1,54.29,4.967a7.27,7.27,0,0,1,.5.705c.051.09.094.158.12.209l.03.051.261.517L61.083.893,60.788.581l-.3.3Z" transform="translate(-24.366)" fill="#141c2b"/>
  <path id="Path_16251" data-name="Path 16251" d="M1.4,60.791,19.611,42.58l5.463,5.16s5.16-6.07,9.712-1.214c0,0,3.339,5.767-2.428,9.712l4.249,4.553-5.767,5.767s7.588,3.339,2.732,8.8c0,0-5.767,3.642-8.195-3.642L19,78.395l-5.767-5.463s7.588-2.732,3.642-9.712c0,0-5.767-4.553-9.712,3.642Z" transform="translate(-0.802 -24.378)" fill="#86e9ef"/>
  <path id="Path_16252" data-name="Path 16252" d="M.6,59.989l.3.3,17.912-17.9,5.5,5.173.291-.346a10.824,10.824,0,0,1,1.731-1.543,6.765,6.765,0,0,1,3.741-1.4,4.8,4.8,0,0,1,3.6,1.748l.312-.291-.372.214a7.994,7.994,0,0,1,.9,3.6,6.058,6.058,0,0,1-.65,2.766A7.472,7.472,0,0,1,31.3,55.082l-.427.282,4.339,4.613L29.3,65.9l.573.252a10.267,10.267,0,0,1,2.193,1.389A6.406,6.406,0,0,1,33.4,69.052a3.633,3.633,0,0,1,.581,1.924,5.011,5.011,0,0,1-1.518,3.3l.321.286-.231-.363a6.236,6.236,0,0,1-2.958.855,3.912,3.912,0,0,1-2.441-.821A6.967,6.967,0,0,1,25,70.809l-.227-.671-6.588,6.874-5.459-5.173-.291.312.145.4A9.869,9.869,0,0,0,15.09,71.1a7.35,7.35,0,0,0,1.744-1.954,5.618,5.618,0,0,0,.808-2.915,8.122,8.122,0,0,0-1.193-4l-.043-.077-.064-.051a6.492,6.492,0,0,0-1.141-.68,6.6,6.6,0,0,0-2.8-.693A5.523,5.523,0,0,0,9.135,61.8a10.329,10.329,0,0,0-3.146,4.07l.385.188.308-.295L.906,59.694.6,59.989l.3.3-.3-.3-.312.295L6.481,66.8l.269-.56A9.493,9.493,0,0,1,9.623,62.5a4.651,4.651,0,0,1,2.774-.915,5.818,5.818,0,0,1,2.445.586,6.372,6.372,0,0,1,.727.427c.085.051.15.1.192.128l.047.034.073-.094-.073.094.073-.094-.073.094.265-.333-.372.209a7.327,7.327,0,0,1,1.082,3.582,4.732,4.732,0,0,1-.688,2.475,7.132,7.132,0,0,1-2.377,2.317,9.623,9.623,0,0,1-1.026.551l-.3.133-.081.034h-.021l-.654.235L18.211,78.2l6.669-6.985-.308-.295-.427.133A7.78,7.78,0,0,0,26.594,74.9a4.748,4.748,0,0,0,2.962,1,7.068,7.068,0,0,0,3.42-.979l.051-.03.043-.047a5.846,5.846,0,0,0,1.71-3.847,4.518,4.518,0,0,0-.748-2.437,8.338,8.338,0,0,0-2.42-2.36,10.608,10.608,0,0,0-1.445-.816L30,65.773l.3.3L36.4,60l-4.531-4.856-.312.295.239.351a8.362,8.362,0,0,0,2.83-3.1,6.96,6.96,0,0,0,.74-3.155,8.733,8.733,0,0,0-1.022-4.027v-.038l-.034-.038a5.72,5.72,0,0,0-4.228-2.018,7.56,7.56,0,0,0-4.339,1.633,11.166,11.166,0,0,0-1.8,1.616l.325.278.291-.312L18.809,41.18,0,59.989l.286.3Z" transform="translate(0 -23.576)" fill="#141c2b"/>
</svg>
